# xmcd
#
# Track frame offsets:
#	150
#	18702
#	37600
#	54749
#	72435
#	87292
#	104159
#	129311
#	143513
#	163843
#	182395
#	201293
#	218442
#	236128
#	251280
#	268147
#	293299
#	307501
#
# Disc length: 4371 seconds
#
# Revision: 0
# Processed by: cddbd v1.5.1PL2 Copyright (c) Steve Scherf et al.
# Submitted via: audiograbber 1.83.01
#
DISCID=f3111112
DTITLE=Various Artist - Pop Hits Monthly 0504-C
DYEAR=2005
DGENRE=Country
TTITLE0=Shania Twain - Don't!
TTITLE1=Lonestar - Class Reunion
TTITLE2=Katrina Elam - I Want A Cowboy
TTITLE3=LeAnn Rimes - You Take Me Home
TTITLE4=Jo Dee Messina - My Give A Damn's Busted
TTITLE5=Dierks Bentley - Lot Of Leavin' Left To Do
TTITLE6=Kenny Chesney - Anything But Mine
TTITLE7=Jeff Bates - Long, Slow Kisses
TTITLE8=Rescal Flatts - Skin
TTITLE9=Shania Twain - Vocal
TTITLE10=Lonestar - Vocal
TTITLE11=Katrina Elam - Vocal
TTITLE12=LeAnn Rimes - Vocal
TTITLE13=Jo Dee Messina - Vocal
TTITLE14=Dierks Bentley - Vocal
TTITLE15=Kenney Chesney - Vocal
TTITLE16=Jeff Bates - Vocal
TTITLE17=Rascal Flatts - Vocal
EXTD=
EXTT0=
EXTT1=
EXTT2=
EXTT3=
EXTT4=
EXTT5=
EXTT6=
EXTT7=
EXTT8=
EXTT9=
EXTT10=
EXTT11=
EXTT12=
EXTT13=
EXTT14=
EXTT15=
EXTT16=
EXTT17=
PLAYORDER=
